<svg width="1840" height="1498" viewBox="0 0 1840 1498" fill="none" xmlns="http://www.w3.org/2000/svg">
<path opacity="0.1" fill-rule="evenodd" clip-rule="evenodd" d="M1685.79 90.939L1695.82 161.625L1705.86 90.8458L1776.62 80.8053L1705.94 70.7764L1695.82 0L1685.7 70.6912L1615 80.8087L1685.79 90.939Z" fill="white"/>
<path opacity="0.1" fill-rule="evenodd" clip-rule="evenodd" d="M1689.69 1409.75L1698.15 1461.39L1706.62 1409.68L1766.28 1402.35L1706.68 1395.02L1698.14 1343.32L1689.61 1394.96L1630 1402.35L1689.69 1409.75Z" fill="white"/>
<path opacity="0.1" fill-rule="evenodd" clip-rule="evenodd" d="M1793.02 197.563L1801.03 254L1809.05 197.492L1865.56 189.472L1809.11 181.463L1801.02 124.938L1792.94 181.398L1736.5 189.475L1793.02 197.563Z" fill="white"/>
<path opacity="0.1" fill-rule="evenodd" clip-rule="evenodd" d="M38.899 1021.97L44.4103 1060.81L49.9289 1021.92L88.8125 1016.4L49.9739 1010.89L44.4084 972L38.8495 1010.84L0 1016.4L38.899 1021.97Z" fill="white"/>
<path opacity="0.1" fill-rule="evenodd" clip-rule="evenodd" d="M103.165 1064.62L106.483 1088L109.805 1064.59L133.219 1061.27L109.833 1057.95L106.482 1034.53L103.134 1057.92L79.75 1061.27L103.165 1064.62Z" fill="white"/>
<path opacity="0.1" fill-rule="evenodd" clip-rule="evenodd" d="M1788.31 1466.45L1793.4 1497.53L1798.49 1466.41L1834.42 1461.99L1798.54 1457.58L1793.39 1426.45L1788.26 1457.54L1752.38 1461.99L1788.31 1466.45Z" fill="white"/>
</svg>
